<?xml version="1.0" encoding="UTF-8"?>
<svg width="116px" height="30px" viewBox="0 0 116 30" version="1.1" xmlns="http://www.w3.org/2000/svg" xmlns:xlink="http://www.w3.org/1999/xlink">
    <!-- Generator: sketchtool 52.5 (67469) - http://www.bohemiancoding.com/sketch -->
    <title>93964DD7-2052-4C59-9C50-81F11541AF25</title>
    <desc>Created with sketchtool.</desc>
    <defs>
        <polygon id="path-1" points="0 1.11111111e-05 17.9270179 1.11111111e-05 17.9270179 21.1111222 0 21.1111222"></polygon>
        <polygon id="path-3" points="0 1.11111111e-05 10.9311085 1.11111111e-05 10.9311085 11.1111111 0 11.1111111"></polygon>
        <polygon id="path-5" points="0 1.11111111e-05 29.5139929 1.11111111e-05 29.5139929 30 0 30"></polygon>
    </defs>
    <g id="Page" stroke="none" stroke-width="1" fill="none" fill-rule="evenodd">
        <g id="home_GNB_normal" transform="translate(-50.000000, -52.000000)">
            <g id="GNB">
                <g id="img-logo-velic-w-pc" transform="translate(50.000000, 52.000000)">
                    <g id="Group-4">
                        <g id="Group-3" transform="translate(97.724110, 4.444444)">
                            <mask id="mask-2" fill="white">
                                <use xlink:href="#path-1"></use>
                            </mask>
                            <g id="Clip-2"></g>
                            <path d="M10.2070319,16.8889 C6.87074824,16.8889 4.16617338,14.0533444 4.16617338,10.5555667 C4.16617338,7.05778889 6.87074824,4.22223333 10.2070319,4.22223333 C12.1884046,4.22223333 13.9455803,5.22334444 15.0471081,6.76845556 C15.1254841,6.87823333 15.2822362,6.88978889 15.3767903,6.79401111 L17.8946618,4.24223333 C17.9332487,4.20312222 17.9380583,4.14067778 17.9054836,4.09634444 C16.0764906,1.60478889 13.2156009,1.11111111e-05 9.99879425,1.11111111e-05 C4.47661686,1.11111111e-05 0,4.7259 0,10.5555667 C0,16.3852333 4.47661686,21.1111222 9.99879425,21.1111222 C13.2156009,21.1111222 16.0764906,19.5063444 17.9054836,17.0147889 C17.9380583,16.9703444 17.9332487,16.9080111 17.8946618,16.8687889 L15.3767903,14.3171222 C15.2822362,14.2213444 15.1254841,14.2329 15.0471081,14.3427889 C13.9455803,15.8877889 12.1884046,16.8889 10.2070319,16.8889" id="Fill-1" fill="#FFFFFF" mask="url(#mask-2)"></path>
                        </g>
                        <path d="M96.0844436,25.1111222 L92.1492446,25.1111222 C92.0887955,25.1111222 92.0399335,25.0613444 92.0399335,25.0000111 L92.0399335,5.00001111 C92.0399335,4.93867778 92.0887955,4.8889 92.1492446,4.8889 L96.0844436,4.8889 C96.1448927,4.8889 96.1937547,4.93867778 96.1937547,5.00001111 L96.1937547,25.0000111 C96.1937547,25.0613444 96.1448927,25.1111222 96.0844436,25.1111222" id="Fill-4" fill="#FFFFFF"></path>
                        <path d="M80.8839065,20.8981222 L80.8839065,5.00001111 C80.8839065,4.93867778 80.8349351,4.8889 80.7745954,4.8889 L76.8457364,4.8889 C76.7852874,4.8889 76.7364253,4.93867778 76.7364253,5.00001111 L76.7364253,25.0000111 C76.7364253,25.0613444 76.7852874,25.1111222 76.8457364,25.1111222 L90.1816888,25.1111222 C90.2420285,25.1111222 90.2909998,25.0613444 90.2909998,25.0000111 L90.2909998,21.0092333 C90.2909998,20.9479 90.2420285,20.8981222 90.1816888,20.8981222 L80.8839065,20.8981222 Z" id="Fill-6" fill="#FFFFFF"></path>
                        <path d="M74.7687821,9.11307778 L74.7687821,4.99996667 C74.7687821,4.93863333 74.71992,4.88885556 74.659471,4.88885556 L60.2304078,4.88885556 C59.8078111,4.88885556 59.4652302,5.23707778 59.4652302,5.66663333 L59.4652302,24.9999667 C59.4652302,25.0613 59.5140922,25.1110778 59.5745413,25.1110778 L74.659471,25.1110778 C74.71992,25.1110778 74.7687821,25.0613 74.7687821,24.9999667 L74.7687821,20.8870778 L63.6075737,20.8870778 L63.6075737,17.1176333 L72.3598937,17.1176333 C72.4203427,17.1176333 72.4692048,17.0678556 72.4692048,17.0065222 L72.4692048,12.9935222 C72.4692048,12.9321889 72.4203427,12.8824111 72.3598937,12.8824111 L63.6075737,12.8824111 L63.6075737,9.11307778 L74.7687821,9.11307778 Z" id="Fill-8" fill="#FFFFFF"></path>
                        <g id="Group-12" transform="translate(-0.000000, 18.888889)">
                            <mask id="mask-4" fill="white">
                                <use xlink:href="#path-3"></use>
                            </mask>
                            <g id="Clip-11"></g>
                            <path d="M0,1.11111111e-05 L0,11.0000111 C0,11.0613444 0.048971366,11.1111222 0.109311085,11.1111222 L10.9311085,11.1111222 L10.9311085,1.11111111e-05 L0,1.11111111e-05 Z" id="Fill-10" fill="#FFFFFF" mask="url(#mask-4)"></path>
                        </g>
                        <g id="Group-15" transform="translate(-0.000000, 0.000000)">
                            <mask id="mask-6" fill="white">
                                <use xlink:href="#path-5"></use>
                            </mask>
                            <g id="Clip-14"></g>
                            <path d="M0,0.111122222 L0,11.1111222 L18.5828844,11.1111222 L18.5828844,30.0000111 L29.4046818,30.0000111 C29.4650216,30.0000111 29.5139929,29.9502333 29.5139929,29.8889 L29.5139929,0.111122222 C29.5139929,0.0497888889 29.4650216,1.11111111e-05 29.4046818,1.11111111e-05 L0.109311085,1.11111111e-05 C0.048971366,1.11111111e-05 0,0.0497888889 0,0.111122222" id="Fill-13" fill="#FFFFFF" mask="url(#mask-6)"></path>
                        </g>
                        <path d="M54.1450706,4.88895556 L48.8620659,19.0556222 L43.5789518,4.88895556 L39.3021556,4.88895556 C39.2254193,4.88895556 39.1725127,4.96728889 39.2001684,5.04006667 L46.7933536,25.0400667 C46.8096409,25.0829556 46.8501954,25.1111778 46.8953408,25.1111778 L50.8287909,25.1111778 C50.8739364,25.1111778 50.9143815,25.0829556 50.9306689,25.0400667 L58.5239634,5.04006667 C58.5516191,4.96728889 58.4987125,4.88895556 58.4219761,4.88895556 L54.1450706,4.88895556 Z" id="Fill-16" fill="#FFFFFF"></path>
                    </g>
                </g>
            </g>
        </g>
    </g>
</svg>